<svg height="512pt" viewBox="0 0 512 512" width="512pt" xmlns="http://www.w3.org/2000/svg"><path d="m512 256c0 141.386719-114.613281 256-256 256s-256-114.613281-256-256 114.613281-256 256-256 256 114.613281 256 256zm0 0" fill="#54a0c8"/><path d="m512 256c0-.285156-.011719-.566406-.011719-.851562l-161.085937-161.085938-84.070313 12.273438-33.738281-32.332032-42.59375 2.332032-5.851562 61.648437 61.167968 61.164063-18.332031 18.335937 1.179687 1.179687-144.664062 144.660157 147.503906 147.503906c8.0625.765625 16.230469 1.171875 24.496094 1.171875 141.386719 0 256-114.613281 256-256zm0 0" fill="#337aad"/><path d="m332.304688 200.9375c-6.511719-9.363281-21.175782-17.03125-32.585938-17.03125h-90.574219l-20.742187 121.003906 187.371094-41.484375c0-.007812-43.46875-62.488281-43.46875-62.488281zm0 0" fill="#7de1fa"/><path d="m160.054688 183.90625c-11.40625 0-26.074219 7.667969-32.585938 17.03125l-43.46875 62.480469c0 .007812 125.144531 41.492187 125.144531 41.492187v-121.003906zm0 0" fill="#bef0fd"/><path d="m209.144531 263.425781v99.902344h-47.363281l-77.78125-36.292969v-63.609375zm0 0" fill="#ff7a78"/><path d="m438 277.253906v86.074219h-228.855469v-99.902344h166.628907zm0 0" fill="#ff5552"/><path d="m84 327.035156h77.78125v36.292969h-77.78125zm0 0" fill="#bab8b6"/><path d="m161.78125 410c-25.730469 0-46.667969-20.9375-46.667969-46.671875 0-25.730469 20.9375-46.667969 46.667969-46.667969 25.734375 0 46.671875 20.9375 46.671875 46.667969 0 25.734375-20.9375 46.671875-46.671875 46.671875zm0 0" fill="#275d86"/><path d="m360.21875 410c-25.734375 0-46.671875-20.9375-46.671875-46.671875 0-25.730469 20.9375-46.667969 46.671875-46.667969 25.730469 0 46.667969 20.9375 46.667969 46.667969 0 25.734375-20.9375 46.671875-46.667969 46.671875zm0 0" fill="#1a405e"/><path d="m161.78125 337.402344c-14.296875 0-25.925781 11.628906-25.925781 25.925781 0 14.300781 11.628906 25.929687 25.925781 25.929687s25.929688-11.628906 25.929688-25.929687c0-14.296875-11.632813-25.925781-25.929688-25.925781zm0 0" fill="#fff"/><path d="m360.21875 337.402344c-14.296875 0-25.929688 11.628906-25.929688 25.925781 0 14.300781 11.632813 25.929687 25.929688 25.929687s25.925781-11.628906 25.925781-25.929687c0-14.296875-11.628906-25.925781-25.925781-25.925781zm0 0" fill="#bef0fd"/><g fill="#bab8b6"><path d="m219.515625 152.796875c-26.6875 0-48.398437-21.710937-48.398437-48.398437s21.710937-48.398438 48.398437-48.398438 48.398437 21.710938 48.398437 48.398438-21.710937 48.398437-48.398437 48.398437zm0-76.054687c-15.25 0-27.65625 12.40625-27.65625 27.65625s12.40625 27.65625 27.65625 27.65625 27.65625-12.40625 27.65625-27.65625-12.40625-27.65625-27.65625-27.65625zm0 0"/><path d="m288.65625 104.398438h20.742188v31.113281h-20.742188zm0 0"/><path d="m350.882812 135.511719h-20.742187v-20.742188h-72.597656v-20.742187h93.339843zm0 0"/></g></svg>